<svg width="20" height="20" viewBox="0 0 20 20" fill="none" xmlns="http://www.w3.org/2000/svg">
<path d="M1 18L4.98638 2H8.02975L12.0161 18H9.68002L8.73701 13.9452H4.30055L3.35754 18H1ZM4.7292 11.9945H8.28693L7.21533 7.36986C7.02958 6.5516 6.87241 5.84292 6.74382 5.24384C6.62951 4.63014 6.55093 4.2137 6.50806 3.99452C6.4652 4.2137 6.38662 4.63014 6.27231 5.24384C6.15801 5.84292 6.00084 6.54429 5.8008 7.34794L4.7292 11.9945Z" fill="#6C707E"/>
<path d="M10.3414 18V15.8959H13.4919V4.10411H10.3414V2H19V4.10411H15.8495V15.8959H19V18H10.3414Z" fill="#6C707E"/>
</svg>
