<svg width="16" height="16" viewBox="0 0 16 16" fill="none" xmlns="http://www.w3.org/2000/svg">
    <path fill-rule="evenodd" clip-rule="evenodd"
          d="M7.01904 11.276L8.3395 9.95557L12.0834 13.7006L10.764 15.021L7.01904 11.276Z" fill="#6E6E6E"/>
    <path fill-rule="evenodd" clip-rule="evenodd"
          d="M4.8788 12.7786C3.58486 12.7786 2.34392 12.2646 1.42897 11.3496C0.514015 10.4347 0 9.19373 0 7.89979C0 6.60586 0.514015 5.36491 1.42897 4.44996C2.34392 3.53501 3.58486 3.021 4.8788 3.021C6.17273 3.021 7.41367 3.53501 8.32863 4.44996C9.24358 5.36491 9.75759 6.60586 9.75759 7.89979C9.75759 9.19373 9.24358 10.4347 8.32863 11.3496C7.41367 12.2646 6.17273 12.7786 4.8788 12.7786ZM4.8788 11.0816C5.29664 11.0816 5.71039 10.9993 6.09643 10.8394C6.48246 10.6795 6.83322 10.4451 7.12868 10.1497C7.42414 9.85422 7.65852 9.50346 7.81842 9.11742C7.97832 8.73139 8.06062 8.31764 8.06062 7.89979C8.06062 7.48195 7.97832 7.0682 7.81842 6.68216C7.65852 6.29612 7.42414 5.94536 7.12868 5.6499C6.83322 5.35444 6.48246 5.12007 6.09643 4.96017C5.71039 4.80027 5.29664 4.71797 4.8788 4.71797C4.03492 4.71797 3.22561 5.0532 2.62891 5.6499C2.0322 6.24661 1.69697 7.05592 1.69697 7.89979C1.69697 8.74366 2.0322 9.55297 2.62891 10.1497C3.22561 10.7464 4.03492 11.0816 4.8788 11.0816Z"
          fill="#6E6E6E"/>
    <path fill-rule="evenodd" clip-rule="evenodd"
          d="M11.9711 4.48023H16L11.2375 10L11.8095 6.57446H8L12.9995 1L11.9711 4.48023Z" fill="#40B6E0"/>
</svg>
