<svg width="16" height="16" viewBox="0 0 16 16" fill="none" xmlns="http://www.w3.org/2000/svg">
    <path fill-rule="evenodd" clip-rule="evenodd"
          d="M8.00012 3.02704C8.00011 3.02704 8.00009 3.02704 8.00007 3.02704C5.25358 3.02704 3.0271 5.25351 3.0271 8.00001C3.0271 10.7465 5.25358 12.973 8.00007 12.973C8.00009 12.973 8.00011 12.973 8.00012 12.973V11.8919C8.00011 11.8919 8.00009 11.8919 8.00007 11.8919C5.85064 11.8919 4.10818 10.1494 4.10818 8.00001C4.10818 5.85058 5.85064 4.10812 8.00007 4.10812C8.00009 4.10812 8.00011 4.10812 8.00012 4.10812V3.02704Z"
          fill="#246CF6"/>
    <path fill-rule="evenodd" clip-rule="evenodd"
          d="M8 16C12.4183 16 16 12.4183 16 8C16 3.58172 12.4183 0 8 0V1.08108C11.8212 1.08108 14.9189 4.17879 14.9189 8C14.9189 11.8212 11.8212 14.9189 8 14.9189V16Z"
          fill="#246CF6"/>
    <path opacity="0.35" fill-rule="evenodd" clip-rule="evenodd"
          d="M8 0C3.58172 0 0 3.58172 0 8C0 12.4183 3.58172 16 8 16V14.9189C4.17879 14.9189 1.08108 11.8212 1.08108 8C1.08108 4.17879 4.17879 1.08108 8 1.08108V0Z"
          fill="#246CF6"/>
    <path opacity="0.35" fill-rule="evenodd" clip-rule="evenodd"
          d="M8 12.973C10.7465 12.973 12.973 10.7465 12.973 8.00001C12.973 5.25351 10.7465 3.02704 8 3.02704V4.10812C10.1494 4.10812 11.8919 5.85058 11.8919 8.00001C11.8919 10.1494 10.1494 11.8919 8 11.8919V12.973Z"
          fill="#246CF6"/>
</svg>
