<svg width="16" height="16" viewBox="0 0 16 16" fill="none" xmlns="http://www.w3.org/2000/svg">
    <g id="go">
        <g id="pluginIcon">
            <path id="Path" fill-rule="evenodd" clip-rule="evenodd"
                  d="M12.0933 8.91204C12.0676 8.60742 12.0479 8.2755 12.0479 7.92319C12.0479 6.64088 12.2856 4.5555 12.2856 4.5555C12.2856 2.59973 10.4999 1.00011 7.99986 1.00011C5.49986 1.00011 3.71448 2.59973 3.71448 4.5555C3.71448 4.5555 3.95217 6.38435 3.95217 7.92319C3.95217 8.29973 3.93602 8.62242 3.91448 8.91204H3.92409C3.8614 10.1493 3.71448 11.2905 3.71448 11.2905C3.71448 13.2463 5.49986 14.8463 7.99986 14.8463C10.4999 14.8463 12.2856 13.2463 12.2856 11.2905C12.2856 11.2905 12.146 10.0628 12.081 8.91204H12.0933Z"
                  fill="#77BBE2"/>
            <path id="Path_2" fill-rule="evenodd" clip-rule="evenodd"
                  d="M13 3.17942C13 3.67519 12.6269 4.07673 12.1665 4.07673C11.7065 4.07673 11.3334 3.67519 11.3334 3.17942C11.3334 2.68365 11.7065 2.28211 12.1665 2.28211C12.6269 2.28211 13 2.68365 13 3.17942Z"
                  fill="#77BBE2"/>
            <path id="Path_3" fill-rule="evenodd" clip-rule="evenodd"
                  d="M3 3.17942C3 3.67519 3.37308 4.07673 3.83346 4.07673C4.29346 4.07673 4.66654 3.67519 4.66654 3.17942C4.66654 2.68365 4.29346 2.28211 3.83346 2.28211C3.37308 2.28211 3 2.68365 3 3.17942Z"
                  fill="#77BBE2"/>
            <path id="Path_4" fill-rule="evenodd" clip-rule="evenodd"
                  d="M7.74343 5.07789C7.74343 5.91404 7.05458 6.59173 6.20497 6.59173C5.35535 6.59173 4.6665 5.91404 4.6665 5.07789C4.6665 4.24173 5.35535 3.56404 6.20497 3.56404C7.05458 3.56404 7.74343 4.24173 7.74343 5.07789Z"
                  fill="white"/>
            <path id="Path_5" fill-rule="evenodd" clip-rule="evenodd"
                  d="M7.74343 5.07789C7.74343 5.91404 7.05458 6.59173 6.20497 6.59173C5.35535 6.59173 4.6665 5.91404 4.6665 5.07789C4.6665 4.24173 5.35535 3.56404 6.20497 3.56404C7.05458 3.56404 7.74343 4.24173 7.74343 5.07789Z"
                  fill="white"/>
            <path id="Path_6" fill-rule="evenodd" clip-rule="evenodd"
                  d="M6.99337 5.07338C6.99337 5.48184 6.68568 5.81338 6.30606 5.81338C5.92683 5.81338 5.61914 5.48184 5.61914 5.07338C5.61914 4.66492 5.92683 4.33338 6.30606 4.33338C6.68568 4.33338 6.99337 4.66492 6.99337 5.07338Z"
                  fill="black"/>
            <path id="Path_7" fill-rule="evenodd" clip-rule="evenodd"
                  d="M11.1373 5.07789C11.1373 5.91404 10.4485 6.59173 9.59889 6.59173C8.74889 6.59173 8.06042 5.91404 8.06042 5.07789C8.06042 4.24173 8.74889 3.56404 9.59889 3.56404C10.4485 3.56404 11.1373 4.24173 11.1373 5.07789Z"
                  fill="white"/>
            <path id="Path_8" fill-rule="evenodd" clip-rule="evenodd"
                  d="M10.3869 5.07338C10.3869 5.48184 10.0792 5.81338 9.7 5.81338C9.32039 5.81338 9.0127 5.48184 9.0127 5.07338C9.0127 4.66492 9.32039 4.33338 9.7 4.33338C10.0792 4.33338 10.3869 4.66492 10.3869 5.07338Z"
                  fill="black"/>
            <path id="Path_9" fill-rule="evenodd" clip-rule="evenodd"
                  d="M7.52344 7.92308H8.47613V7.15385H7.52344V7.92308Z" fill="white"/>
            <path id="Path_10" fill-rule="evenodd" clip-rule="evenodd"
                  d="M8.95255 6.8975C8.95255 7.18057 8.52601 7.41019 7.99985 7.41019C7.47408 7.41019 7.04755 7.18057 7.04755 6.8975C7.04755 6.61442 7.47408 6.3848 7.99985 6.3848C8.52601 6.3848 8.95255 6.61442 8.95255 6.8975Z"
                  fill="#B7937F"/>
            <path id="Path_11" fill-rule="evenodd" clip-rule="evenodd"
                  d="M8.47627 6.6325C8.47627 6.92057 8.25974 6.8975 7.99204 6.8975C7.72474 6.8975 7.50781 6.92057 7.50781 6.6325C7.50781 6.34442 7.72474 6.11134 7.99204 6.11134C8.25974 6.11134 8.47627 6.34442 8.47627 6.6325Z"
                  fill="black"/>
            <g id="Clipped">
                <path id="Shape" fill-rule="evenodd" clip-rule="evenodd"
                      d="M3.59526 8.91223C3.92411 8.91223 4.19065 8.62492 4.19065 8.27107C4.19065 7.91723 3.92411 7.62992 3.59526 7.62992C3.2668 7.62992 2.99988 7.91723 2.99988 8.27107C2.99988 8.62492 3.2668 8.91223 3.59526 8.91223ZM12.4046 8.91223C12.7335 8.91223 13 8.62492 13 8.27107C13 7.91723 12.7335 7.62992 12.4046 7.62992C12.0761 7.62992 11.8092 7.91723 11.8092 8.27107C11.8092 8.62492 12.0761 8.91223 12.4046 8.91223ZM12.0001 14.205C12.0001 14.5592 11.7336 14.8462 11.4048 14.8462C11.0763 14.8462 10.8094 14.5592 10.8094 14.205C10.8094 13.8512 11.0763 13.5642 11.4048 13.5642C11.7336 13.5642 12.0001 13.8512 12.0001 14.205ZM4.59511 14.8462C4.92395 14.8462 5.19049 14.5592 5.19049 14.205C5.19049 13.8512 4.92395 13.5642 4.59511 13.5642C4.26665 13.5642 3.99972 13.8512 3.99972 14.205C3.99972 14.5592 4.26665 14.8462 4.59511 14.8462Z"
                      fill="#B7937F"/>
            </g>
        </g>
    </g>
</svg>
