<svg viewBox="0 0 13 13" xmlns="http://www.w3.org/2000/svg">
  <path fill="#089b77" d="M12.1 5.3c.3-.9.2-1.9-.3-2.7C11.1 1.4 9.6.7 8.2 1 7.7.4 6.8 0 5.8 0 4.4 0 3.1.9 2.6 2.3 1.7 2.5.9 3 .4 3.8-.3 5-.2 6.6.8 7.6c-.3.9-.2 1.9.3 2.7.7 1.2 2.2 1.9 3.6 1.6.6.7 1.5 1.1 2.5 1.1 1.4 0 2.7-.9 3.2-2.3.9-.2 1.7-.8 2.2-1.6.7-1.2.5-2.7-.5-3.8zm-4.9 6.9c-.6 0-1.1-.2-1.6-.6h.1L8.3 10c.1 0 .2-.2.2-.3V6l1.1.6v3c.1 1.5-1 2.5-2.4 2.6zM1.9 9.9c-.3-.5-.4-1.1-.3-1.6h.1l2.6 1.5c.1.1.3.1.4 0L7.9 8v1.3l-2.7 1.5c-1.1.7-2.6.3-3.3-.9zm-.7-5.6c.3-.5.7-.9 1.3-1.1v3.1c0 .2.1.3.2.4l3.2 1.8-1.1.6-2.7-1.5C.9 6.9.5 5.4 1.2 4.3zm9.1 2.1L7.1 4.5l1.1-.6 2.7 1.5c1.2.7 1.6 2.2.9 3.3-.3.5-.7.9-1.3 1.1V6.7c0-.1-.1-.3-.2-.3zm1.1-1.7L8.7 3.2c-.1-.1-.3-.1-.4 0L5.1 5V3.7l2.7-1.5c1.2-.7 2.7-.3 3.4.9.2.5.3 1.1.2 1.6zM4.5 7l-1.1-.7v-3C3.4 2 4.5.9 5.9.9c.6 0 1.1.2 1.6.6h-.1L4.7 3c-.1 0-.2.2-.2.3V7zm.6-1.3 1.4-.8 1.4.8v1.6l-1.4.8-1.4-.8V5.7z"/>
</svg>
