<!-- Copyright 2000-2021 JetBrains s.r.o. and contributors. Use of this source code is governed by the Apache 2.0 license that can be found in the LICENSE file. -->

<svg width="16" height="16" viewBox="0 0 16 16" fill="none" xmlns="http://www.w3.org/2000/svg">
<path d="M8 1.99998C7.2056 1.99539 6.4182 2.14861 5.68349 2.45074C4.94877 2.75286 4.28137 3.19788 3.72 3.75998L2 1.99998V6.99998H7L5.15 5.18998C5.51971 4.80897 5.96296 4.50703 6.45287 4.30247C6.94277 4.09791 7.46913 3.995 8 3.99998C8.73705 4.00004 9.45976 4.20374 10.0883 4.58861C10.7169 4.97348 11.227 5.52454 11.5621 6.18097C11.8973 6.8374 12.0446 7.57368 11.9878 8.30854C11.9309 9.0434 11.6721 9.74826 11.2399 10.3453C10.8078 10.9424 10.2191 11.4084 9.53875 11.692C8.85844 11.9756 8.113 12.0657 7.38471 11.9524C6.65642 11.8391 5.9736 11.5268 5.41161 11.0499C4.84963 10.573 4.43033 9.95012 4.2 9.24998L2.3 9.86998C2.64466 10.9208 3.27303 11.8559 4.11571 12.572C4.95839 13.2881 5.98259 13.7574 7.07522 13.9281C8.16784 14.0988 9.28638 13.9641 10.3073 13.5391C11.3282 13.114 12.2118 12.4151 12.8605 11.5195C13.5092 10.6238 13.8977 9.56633 13.9832 8.46376C14.0687 7.3612 13.8478 6.25646 13.3449 5.27154C12.842 4.28663 12.0767 3.45985 11.1335 2.88252C10.1903 2.30519 9.10587 1.99977 8 1.99998V1.99998Z" fill="#AFB1B3"/>
</svg>
