<svg xmlns="http://www.w3.org/2000/svg" width="16" height="16" viewBox="0 0 16 16">
    <g fill="none" fill-opacity=".8" fill-rule="evenodd">
        <path fill="#9AA7B0"
              d="M10.0659026,2.3651416 L8.35671121,4.01568853 C8.23919357,4.00530324 8.1202161,4 8,4 C5.790861,4 4,5.790861 4,8 C4,10.209139 5.790861,12 8,12 C10.209139,12 12,10.209139 12,8 C12,7.82394633 11.9886262,7.65054916 11.9665733,7.4805032 L13.6171827,5.88652821 C13.8646307,6.54387456 14,7.25612868 14,8 C14,11.3137085 11.3137085,14 8,14 C4.6862915,14 2,11.3137085 2,8 C2,4.6862915 4.6862915,2 8,2 C8.72596366,2 9.42181409,2.1289301 10.0659026,2.3651416 Z"/>
        <path fill="#9AA7B0"
              d="M11.5373214,5.11294108 L9.67686543,6.90956249 C9.88123875,7.22320402 10,7.59773292 10,8 C10,9.1045695 9.1045695,10 8,10 C6.8954305,10 6,9.1045695 6,8 C6,6.8954305 6.8954305,6 8,6 C8.33890958,6 8.65813048,6.08429726 8.93783917,6.23306826 L10.8198819,4.41560072 L10.5878849,3.22296643 L12.5329283,1.20881499 L12.9172797,2.97014235 L14.6909477,3.2927901 L12.7459043,5.30694154 L11.5403036,5.11582103 L11.5373214,5.11294108 Z"/>
    </g>
</svg>
